<?xml version="1.0" encoding="utf-8"?>
<!-- Generator: Adobe Illustrator 22.1.0, SVG Export Plug-In . SVG Version: 6.00 Build 0)  -->
<svg version="1.1" id="Calque_1" xmlns="http://www.w3.org/2000/svg" xmlns:xlink="http://www.w3.org/1999/xlink" x="0px" y="0px"
	 viewBox="0 0 841.9 595.3" style="enable-background:new 0 0 841.9 595.3;" xml:space="preserve">
<style type="text/css">
	.st0{fill:#ED1C24;}
	.st1{fill:#0C0D0D;}
</style>
<g>
	<g>
		<g>
			<path class="st0" d="M295.7,223.4c14.2-6.8,23.9-21.1,23.9-38.7c-0.1-24.9-19.7-43.2-44.1-43.3h-50.4v137.3h23.7V228h18
				l27.1,28.3c21,21.9,40.9,24.5,63.2,24.5h2.4v-22.1h-1.7c-11.4,0-28.8-1.3-45.1-17.5L295.7,223.4z M248.8,163.7h24.9
				c12.6,0,22.2,8.8,22.2,21c0,12.4-9.6,21.1-22.2,21.2h-24.9L248.8,163.7z"/>
			<path class="st0" d="M213.1,276.5c-13.3-45.2-34.2-107.6-61-134.6l-0.5-0.5h-17l-0.5,0.5c-26.8,27-47.7,89.3-61,134.6l-0.6,2.2
				h26.8l0.4-1.3c3.6-13,6.6-24.7,10.9-37.7h65.3c4.3,13,7.3,24.7,10.9,37.7l0.3,1.3h26.7L213.1,276.5z M168.5,219h-50.7
				c6.7-19.2,16-37.8,25.4-51.1C152.5,181.2,161.8,199.9,168.5,219z"/>
			<path class="st0" d="M371.7,278.7h23.7V141.4h-23.7V278.7z M429.2,207.5l75-66.1h-31.7l-75.7,66.7l46.1,48.1
				c21,21.9,40.9,24.5,63.2,24.5h2.4v-22.1h-1.7c-11.4,0-28.9-1.3-45.2-17.7L429.2,207.5z"/>
			<path class="st0" d="M768.8,276.5c-13.3-45.2-34.2-107.6-61-134.6l-0.5-0.5h-17l-0.5,0.5c-26.8,27-47.7,89.3-61,134.6l-0.6,2.2
				h26.8l0.3-1.3c3.6-13,6.6-24.7,10.9-37.7h65.3c4.4,13,7.3,24.7,10.9,37.7l0.3,1.3h26.7L768.8,276.5z M724.1,219h-50.7
				c6.7-19.2,16-37.8,25.4-51.1C708.1,181.2,717.5,199.9,724.1,219z"/>
			<g>
				<polygon class="st0" points="617.7,163.7 617.7,141.4 523.1,141.4 523.1,278.7 617.7,278.7 617.7,256.6 546.8,256.6 
					546.8,218.9 602.7,218.9 602.7,196.8 546.8,196.8 546.8,163.7 				"/>
			</g>
		</g>
	</g>
	<g>
		<g>
			<path class="st1" d="M167.4,318.4l-0.8-1.8h-2h-12.8h-2l-0.8,1.8L89.9,449.5l-1.9,4.3h4.7h14.5h2l0.8-1.8l16-36.1h64.4l16,36.1
				l0.8,1.8h2h14.5h4.7l-1.9-4.3L167.4,318.4z M182.2,397.4h-47.8l23.8-53.9L182.2,397.4z"/>
			<path class="st1" d="M313.9,403.8c9.3-2.6,17.1-7.3,22.8-13.6c6.9-7.7,10.6-17.6,10.6-28.7c0-13.5-5.2-24.9-14.9-33
				c-9.4-7.8-22.5-11.9-37.7-11.9h-48.4h-3.1v3.1v131.1v3.1h3.1h13.6h3.1v-3.1v-44.5h27.9l39.9,46.5l0.9,1.1h1.4h17h6.7l-4.4-5.1
				L313.9,403.8z M262.9,335.3h31.4c9.9,0,18.3,2.5,24.3,7.1c5.9,4.6,9,11.2,9,19.1c0,7.8-3.1,14.3-9,18.9c-6,4.7-14.4,7.1-24.3,7.1
				h-31.4V335.3z"/>
			<polygon class="st1" points="374.4,316.6 371.3,316.6 371.3,319.7 371.3,450.8 371.3,453.8 374.4,453.8 464.7,453.8 467.8,453.8 
				467.8,450.8 467.8,438.2 467.8,435.1 464.7,435.1 391,435.1 391,395 457.1,395 460.1,395 460.1,392 460.1,379.2 460.1,376.2 
				457.1,376.2 391,376.2 391,335.3 464.7,335.3 467.8,335.3 467.8,332.2 467.8,319.7 467.8,316.6 464.7,316.6 			"/>
			<polygon class="st1" points="582.1,316.6 579,316.6 579,319.7 579,418.4 499.1,317.8 498.2,316.6 496.7,316.6 485.4,316.6 
				482.3,316.6 482.3,319.7 482.3,450.8 482.3,453.8 485.4,453.8 499,453.8 502,453.8 502,450.8 502,353.1 581.6,452.7 582.5,453.8 
				584,453.8 595.6,453.8 598.7,453.8 598.7,450.8 598.7,319.7 598.7,316.6 595.6,316.6 			"/>
			<path class="st1" d="M752,449.5l-59.1-131.1l-0.8-1.8h-2h-12.8h-2l-0.8,1.8l-59.1,131.1l-1.9,4.3h4.7h14.5h2l0.8-1.8l16-36.1
				h64.4l16,36.1l0.8,1.8h2h14.5h4.7L752,449.5z M707.6,397.4h-47.8l23.8-53.9L707.6,397.4z"/>
		</g>
		<g>
			<path class="st1" d="M725.6,328.4L725.6,328.4c0-7.5,6.1-13.8,13.7-13.8c7.7,0,13.7,6.2,13.7,13.7v0.1c0,7.5-6.1,13.8-13.7,13.8
				C731.5,342,725.6,335.8,725.6,328.4z M750.8,328.3L750.8,328.3c0-6.5-5-11.7-11.6-11.7c-6.5,0-11.6,5.3-11.6,11.7v0.1
				c0,6.4,5,11.6,11.6,11.6C745.8,340,750.8,334.6,750.8,328.3z M734.9,322.4h5.1c2.5,0,4.4,1.2,4.4,3.6c0,1.9-1.1,3-2.6,3.5l3,4.3
				h-2.6l-2.7-3.9h-2.4v3.9h-2.2V322.4z M739.8,328c1.5,0,2.3-0.8,2.3-1.9c0-1.2-0.8-1.9-2.3-1.9h-2.8v3.7H739.8z"/>
		</g>
	</g>
</g>
</svg>
